# xmcd
#
# Track frame offsets:
#	150
#	18466
#	32474
#	51994
#	71594
#	91341
#	108582
#	129494
#	147222
#	161112
#	177555
#	190148
#
# Disc length: 2729 seconds
#
# Revision: 0
# Processed by: cddbd v1.5.1PL0 Copyright (c) Steve Scherf et al.
# Submitted via: dBpowerAMP V4.0
#
DISCID=a80aa70c
DTITLE=Rockie Rash - A Boy Like Me
DYEAR=2004
DGENRE=Country
TTITLE0=A Boy Like Me
TTITLE1=10,000 miles
TTITLE2=Been There Done That
TTITLE3=Twinkling of an Eye
TTITLE4=It ain't Over Tonight
TTITLE5=Grace
TTITLE6=1-800-GOODBYE
TTITLE7=How Many Minutes
TTITLE8=Too Much Information
TTITLE9=Miss Whiskey
TTITLE10=Don't Let The Door Hit Ya
TTITLE11=Rumors Of War
EXTD=Rockie Rash
EXTT0=
EXTT1=
EXTT2=
EXTT3=
EXTT4=
EXTT5=
EXTT6=
EXTT7=
EXTT8=
EXTT9=
EXTT10=
EXTT11=
PLAYORDER=
